<svg width="100" height="100" version="1.1" xmlns="http://www.w3.org/2000/svg" stroke-linejoin="round" stroke-linecap="round" fill="transparent">
  <path d="M50 28 C 64 28, 76 35, 76 45 C 76 49, 72 53, 67 56 C 79 59, 84 68, 84 75 C 84 87, 75 92, 68 92 L32 92 C 25 92, 16 87, 16 75 C 16 68, 21 59, 33 56 C 28 53, 24 49, 24 45 C 24 35, 36 28, 50 28 Z" fill="transparent" stroke="black">
  </path>
  <ellipse cx="40" cy="44" rx="2" ry="3" fill="black">
  </ellipse>
  <ellipse cx="60" cy="44" rx="2" ry="3" fill="black">
  </ellipse>
  <path d="M40 52 C 45 55, 55 55, 60 52" stroke="black">
  </path>
  <path d="M58 10 L77 19 L74 39 C 66 40, 50 34, 46 28 L58 10 Z" fill="green" stroke="green">
  </path>
  <path d="M20 69 C 19 67, 14 59, 13 58 C 12 57, 10 57,  7 56 C  4 54,  6 54,  8 54 C  9 54, 11 56, 12 56 C 14 54, 14 53, 15 51 C 16 49, 16 51, 16 52 C 16 54, 14 56, 15 57 C 16 58, 21 65, 22 67 C 23 69, 21 70, 20 69 Z" fill="brown" stroke="brown">
  </path>
  <path d="M80 69 C 81 67, 86 59, 87 58 C 88 57, 90 57, 93 56 C 96 54, 94 54, 92 54 C 91 54, 89 56, 88 56 C 86 54, 86 53, 85 51 C 84 49, 84 51, 84 52 C 84 54, 86 56, 85 57 C 84 58, 79 65, 78 67 C 77 69, 79 70, 80 69 Z" fill="brown" stroke="brown">
  </path>
  <path d="M27 52 C 42 62, 58 62, 73 52 C 75 56, 76 56, 77 59 C 77 61, 75 63, 73 63 C 74 67, 74 69, 76 74 C 75 75, 72 76, 66 77 C 66 73, 65 70, 63 66 C 42 70, 32 65, 24 59 C 25 55, 26 53, 27 52 Z" fill="red" stroke="red">
  </path>
  <circle cx="50" cy="84" r="3" fill="blue" stroke="blue">
  </circle>
  <circle cx="50" cy="74" r="3" fill="blue" stroke="blue">
  </circle>
  <circle cx="7" cy="72" r="4" fill="transparent" stroke="skyblue">
  </circle>
  <circle cx="13" cy="45" r="4" fill="transparent" stroke="skyblue">
  </circle>
  <circle cx="8" cy="32" r="4" fill="transparent" stroke="skyblue">
  </circle>
  <circle cx="23" cy="24" r="4" fill="transparent" stroke="skyblue">
  </circle>
  <circle cx="42" cy="11" r="4" fill="transparent" stroke="skyblue">
  </circle>
  <circle cx="74" cy="11" r="4" fill="transparent" stroke="skyblue">
  </circle>
  <circle cx="88" cy="27" r="4" fill="transparent" stroke="skyblue">
  </circle>
  <circle cx="92" cy="47" r="4" fill="transparent" stroke="skyblue">
  </circle>
  <circle cx="94" cy="77" r="4" fill="transparent" stroke="skyblue">
  </circle>
</svg>
